<svg width="0" height="0" class="hidden">
  <symbol fill="none" xmlns="http://www.w3.org/2000/svg" viewBox="0 0 23 30" id="email">
    <path d="M14.679 0a.626.626 0 00-.092.009H0V30h22.991V8.594a.665.665 0 000-.212v-.167l-.123-.126a.648.648 0 00-.117-.121l-.004-.003-7.553-7.71a.647.647 0 00-.12-.123l-.12-.123h-.167A.625.625 0 0014.68 0zM1.277 1.313H14.05v7.824h7.664v19.559H1.277V1.313zm14.05.922l5.484 5.598h-5.483V2.235zM5.11 13.049v1.303h12.773V13.05H5.11zm0 3.911v1.304h10.219V16.96H5.109zm0 3.912v1.304h12.773v-1.304H5.11z" fill="#fff"></path>
  </symbol>
  <symbol fill="none" xmlns="http://www.w3.org/2000/svg" viewBox="0 0 26 26" id="phone">
    <path d="M22.374 25.19h-.16C3.794 24.13 1.178 8.585.813 3.842A2.812 2.812 0 013.399.814h5.166a1.875 1.875 0 011.744 1.182l1.425 3.506a1.875 1.875 0 01-.413 2.025L9.324 9.543a8.785 8.785 0 007.106 7.125l2.035-2.016a1.875 1.875 0 012.034-.384l3.535 1.415a1.875 1.875 0 011.153 1.744v4.95a2.813 2.813 0 01-2.813 2.813zM3.624 2.69a.938.938 0 00-.937.937v.075c.43 5.55 3.197 18.675 19.63 19.612a.938.938 0 00.995-.88v-5.007l-3.535-1.416-2.69 2.672-.45-.056C8.48 17.605 7.374 9.449 7.374 9.364l-.056-.45 2.662-2.69-1.406-3.535h-4.95z" fill="#fff"></path>
  </symbol>
</svg>