<svg aria-hidden="true" 
style="position: absolute; width: 0; height: 0; overflow: hidden;" 
version="1.1" xmlns="http://www.w3.org/2000/svg" 
xmlns:xlink="http://www.w3.org/1999/xlink">
<defs>
<symbol id="SAFEHOUSE" viewBox="0 0 508 339">
<title>SAFEHOUSE</title>
<path d="M254.808 44L254.802 44.0057L254.797 44.0009L252.243 46.5643L134.6 164.208L150.156 179.764L254.981 74.9395L359.839 179.797L375.243 164.393L324.6 113.772V63.0011H306.6V95.78L270.362 59.5586L270.364 59.5563L254.808 44ZM273.6 141H236.6V205H273.6V141ZM90.2 272.498C92.8 273.231 95.4833 273.598 98.25 273.598C101.45 273.598 104.167 273.115 106.4 272.148C108.633 271.181 110.3 269.881 111.4 268.248C112.533 266.581 113.1 264.748 113.1 262.748C113.1 260.415 112.483 258.565 111.25 257.198C110.05 255.831 108.6 254.831 106.9 254.198C105.2 253.565 103.017 252.931 100.35 252.298C97.7833 251.731 95.8667 251.165 94.6 250.598C93.3667 249.998 92.75 249.098 92.75 247.898C92.75 246.698 93.2833 245.731 94.35 244.998C95.45 244.265 97.1333 243.898 99.4 243.898C102.633 243.898 105.867 244.815 109.1 246.648L111.6 240.498C110 239.498 108.133 238.731 106 238.198C103.867 237.665 101.683 237.398 99.45 237.398C96.25 237.398 93.5333 237.881 91.3 238.848C89.1 239.815 87.45 241.131 86.35 242.798C85.25 244.431 84.7 246.265 84.7 248.298C84.7 250.631 85.3 252.498 86.5 253.898C87.7333 255.298 89.2 256.315 90.9 256.948C92.6 257.581 94.7833 258.215 97.45 258.848C99.1833 259.248 100.55 259.615 101.55 259.948C102.583 260.281 103.417 260.731 104.05 261.298C104.717 261.831 105.05 262.515 105.05 263.348C105.05 264.481 104.5 265.398 103.4 266.098C102.3 266.765 100.6 267.098 98.3 267.098C96.2333 267.098 94.1667 266.765 92.1 266.098C90.0333 265.431 88.25 264.548 86.75 263.448L84 269.548C85.5667 270.748 87.6333 271.731 90.2 272.498ZM127.935 265.498H144.185L147.285 272.998H155.785L140.135 237.998H132.135L116.535 272.998H124.835L127.935 265.498ZM136.085 245.948L141.635 259.348H130.535L136.085 245.948ZM170.016 253.748V244.498H188.366V237.998H161.916V272.998H170.016V260.248H186.216V253.748H170.016ZM223.45 272.998V266.498H204.4V258.398H220.65V252.098H204.4V244.498H222.8V237.998H196.35V272.998H223.45ZM264.495 272.998V237.998H256.395V251.798H240.495V237.998H232.395V272.998H240.495V258.648H256.395V272.998H264.495ZM282.375 271.248C285.309 272.815 288.592 273.598 292.225 273.598C295.859 273.598 299.125 272.815 302.025 271.248C304.925 269.681 307.209 267.531 308.875 264.798C310.542 262.031 311.375 258.931 311.375 255.498C311.375 252.065 310.542 248.981 308.875 246.248C307.209 243.481 304.925 241.315 302.025 239.748C299.125 238.181 295.859 237.398 292.225 237.398C288.592 237.398 285.309 238.181 282.375 239.748C279.475 241.315 277.192 243.481 275.525 246.248C273.892 248.981 273.075 252.065 273.075 255.498C273.075 258.931 273.892 262.031 275.525 264.798C277.192 267.531 279.475 269.681 282.375 271.248ZM297.825 265.298C296.159 266.231 294.292 266.698 292.225 266.698C290.159 266.698 288.292 266.231 286.625 265.298C284.959 264.331 283.642 262.998 282.675 261.298C281.742 259.598 281.275 257.665 281.275 255.498C281.275 253.331 281.742 251.398 282.675 249.698C283.642 247.998 284.959 246.681 286.625 245.748C288.292 244.781 290.159 244.298 292.225 244.298C294.292 244.298 296.159 244.781 297.825 245.748C299.492 246.681 300.792 247.998 301.725 249.698C302.692 251.398 303.175 253.331 303.175 255.498C303.175 257.665 302.692 259.598 301.725 261.298C300.792 262.998 299.492 264.331 297.825 265.298ZM323.813 269.448C326.613 272.215 330.513 273.598 335.513 273.598C340.513 273.598 344.396 272.215 347.163 269.448C349.963 266.681 351.363 262.731 351.363 257.598V237.998H343.363V257.298C343.363 260.531 342.696 262.915 341.363 264.448C340.03 265.948 338.096 266.698 335.563 266.698C330.363 266.698 327.763 263.565 327.763 257.298V237.998H319.663V257.598C319.663 262.731 321.046 266.681 323.813 269.448ZM365.317 272.498C367.917 273.231 370.601 273.598 373.367 273.598C376.567 273.598 379.284 273.115 381.517 272.148C383.751 271.181 385.417 269.881 386.517 268.248C387.651 266.581 388.217 264.748 388.217 262.748C388.217 260.415 387.601 258.565 386.367 257.198C385.167 255.831 383.717 254.831 382.017 254.198C380.317 253.565 378.134 252.931 375.467 252.298C372.901 251.731 370.984 251.165 369.717 250.598C368.484 249.998 367.867 249.098 367.867 247.898C367.867 246.698 368.401 245.731 369.467 244.998C370.567 244.265 372.251 243.898 374.517 243.898C377.751 243.898 380.984 244.815 384.217 246.648L386.717 240.498C385.117 239.498 383.251 238.731 381.117 238.198C378.984 237.665 376.801 237.398 374.567 237.398C371.367 237.398 368.651 237.881 366.417 238.848C364.217 239.815 362.567 241.131 361.467 242.798C360.367 244.431 359.817 246.265 359.817 248.298C359.817 250.631 360.417 252.498 361.617 253.898C362.851 255.298 364.317 256.315 366.017 256.948C367.717 257.581 369.901 258.215 372.567 258.848C374.301 259.248 375.667 259.615 376.667 259.948C377.701 260.281 378.534 260.731 379.167 261.298C379.834 261.831 380.167 262.515 380.167 263.348C380.167 264.481 379.617 265.398 378.517 266.098C377.417 266.765 375.717 267.098 373.417 267.098C371.351 267.098 369.284 266.765 367.217 266.098C365.151 265.431 363.367 264.548 361.867 263.448L359.117 269.548C360.684 270.748 362.751 271.731 365.317 272.498ZM423.352 272.998V266.498H404.302V258.398H420.552V252.098H404.302V244.498H422.702V237.998H396.252V272.998H423.352Z"></path>
</symbol>

</defs>
</svg>